solid OpenSCAD_Model
  facet normal 1 -0 0
    outer loop
      vertex 596.9 -18 8
      vertex 596.9 18 -4
      vertex 596.9 18 8
    endloop
  endfacet
  facet normal 1 0 0
    outer loop
      vertex 596.9 18 -4
      vertex 596.9 -18 8
      vertex 596.9 -18 -4
    endloop
  endfacet
  facet normal -0 0 1
    outer loop
      vertex 4 4 4
      vertex 592.9 0 4
      vertex 592.9 4 4
    endloop
  endfacet
  facet normal 0 0 1
    outer loop
      vertex 592.9 0 4
      vertex 4 4 4
      vertex 4 0 4
    endloop
  endfacet
  facet normal 0 0 -1
    outer loop
      vertex 4 0 0
      vertex 592.9 4 0
      vertex 592.9 0 0
    endloop
  endfacet
  facet normal -0 0 -1
    outer loop
      vertex 592.9 4 0
      vertex 4 0 0
      vertex 4 4 0
    endloop
  endfacet
  facet normal -1 0 0
    outer loop
      vertex 0 -18 -4
      vertex 0 18 8
      vertex 0 18 -4
    endloop
  endfacet
  facet normal -1 -0 0
    outer loop
      vertex 0 18 8
      vertex 0 -18 -4
      vertex 0 -18 8
    endloop
  endfacet
  facet normal 0 1 -0
    outer loop
      vertex 592.9 4 0
      vertex 4 4 4
      vertex 592.9 4 4
    endloop
  endfacet
  facet normal 0 1 0
    outer loop
      vertex 4 4 4
      vertex 592.9 4 0
      vertex 4 4 0
    endloop
  endfacet
  facet normal 0 -1 0
    outer loop
      vertex 4 0 0
      vertex 592.9 0 4
      vertex 4 0 4
    endloop
  endfacet
  facet normal 0 -1 -0
    outer loop
      vertex 592.9 0 4
      vertex 4 0 0
      vertex 592.9 0 0
    endloop
  endfacet
  facet normal 1 0 0
    outer loop
      vertex 4 18 8
      vertex 4 4 4
      vertex 4 18 -4
    endloop
  endfacet
  facet normal 1 0 0
    outer loop
      vertex 4 18 8
      vertex 4 0 4
      vertex 4 4 4
    endloop
  endfacet
  facet normal 1 0 0
    outer loop
      vertex 4 0 4
      vertex 4 -18 8
      vertex 4 0 0
    endloop
  endfacet
  facet normal 1 -0 0
    outer loop
      vertex 4 -18 8
      vertex 4 0 4
      vertex 4 18 8
    endloop
  endfacet
  facet normal 1 -0 0
    outer loop
      vertex 4 4 0
      vertex 4 18 -4
      vertex 4 4 4
    endloop
  endfacet
  facet normal 1 -0 0
    outer loop
      vertex 4 0 0
      vertex 4 18 -4
      vertex 4 4 0
    endloop
  endfacet
  facet normal 1 0 0
    outer loop
      vertex 4 0 0
      vertex 4 -18 -4
      vertex 4 18 -4
    endloop
  endfacet
  facet normal 1 0 0
    outer loop
      vertex 4 -18 -4
      vertex 4 0 0
      vertex 4 -18 8
    endloop
  endfacet
  facet normal -0 0 1
    outer loop
      vertex 0 18 8
      vertex 4 -18 8
      vertex 4 18 8
    endloop
  endfacet
  facet normal 0 0 1
    outer loop
      vertex 4 -18 8
      vertex 0 18 8
      vertex 0 -18 8
    endloop
  endfacet
  facet normal 0 0 -1
    outer loop
      vertex 0 -18 -4
      vertex 4 18 -4
      vertex 4 -18 -4
    endloop
  endfacet
  facet normal -0 0 -1
    outer loop
      vertex 4 18 -4
      vertex 0 -18 -4
      vertex 0 18 -4
    endloop
  endfacet
  facet normal 0 1 -0
    outer loop
      vertex 4 18 -4
      vertex 0 18 8
      vertex 4 18 8
    endloop
  endfacet
  facet normal 0 1 0
    outer loop
      vertex 0 18 8
      vertex 4 18 -4
      vertex 0 18 -4
    endloop
  endfacet
  facet normal 0 -1 0
    outer loop
      vertex 0 -18 -4
      vertex 4 -18 8
      vertex 0 -18 8
    endloop
  endfacet
  facet normal 0 -1 -0
    outer loop
      vertex 4 -18 8
      vertex 0 -18 -4
      vertex 4 -18 -4
    endloop
  endfacet
  facet normal -0 0 1
    outer loop
      vertex 592.9 18 8
      vertex 596.9 -18 8
      vertex 596.9 18 8
    endloop
  endfacet
  facet normal 0 0 1
    outer loop
      vertex 596.9 -18 8
      vertex 592.9 18 8
      vertex 592.9 -18 8
    endloop
  endfacet
  facet normal 0 0 -1
    outer loop
      vertex 592.9 -18 -4
      vertex 596.9 18 -4
      vertex 596.9 -18 -4
    endloop
  endfacet
  facet normal -0 0 -1
    outer loop
      vertex 596.9 18 -4
      vertex 592.9 -18 -4
      vertex 592.9 18 -4
    endloop
  endfacet
  facet normal -1 0 0
    outer loop
      vertex 592.9 18 -4
      vertex 592.9 4 0
      vertex 592.9 18 8
    endloop
  endfacet
  facet normal -1 0 0
    outer loop
      vertex 592.9 18 -4
      vertex 592.9 0 0
      vertex 592.9 4 0
    endloop
  endfacet
  facet normal -1 -0 0
    outer loop
      vertex 592.9 0 0
      vertex 592.9 -18 -4
      vertex 592.9 0 4
    endloop
  endfacet
  facet normal -1 0 0
    outer loop
      vertex 592.9 -18 -4
      vertex 592.9 0 0
      vertex 592.9 18 -4
    endloop
  endfacet
  facet normal -1 0 0
    outer loop
      vertex 592.9 4 4
      vertex 592.9 18 8
      vertex 592.9 4 0
    endloop
  endfacet
  facet normal -1 0 0
    outer loop
      vertex 592.9 0 4
      vertex 592.9 18 8
      vertex 592.9 4 4
    endloop
  endfacet
  facet normal -1 0 0
    outer loop
      vertex 592.9 0 4
      vertex 592.9 -18 8
      vertex 592.9 18 8
    endloop
  endfacet
  facet normal -1 0 0
    outer loop
      vertex 592.9 -18 8
      vertex 592.9 0 4
      vertex 592.9 -18 -4
    endloop
  endfacet
  facet normal 0 1 -0
    outer loop
      vertex 596.9 18 -4
      vertex 592.9 18 8
      vertex 596.9 18 8
    endloop
  endfacet
  facet normal 0 1 0
    outer loop
      vertex 592.9 18 8
      vertex 596.9 18 -4
      vertex 592.9 18 -4
    endloop
  endfacet
  facet normal 0 -1 0
    outer loop
      vertex 592.9 -18 -4
      vertex 596.9 -18 8
      vertex 592.9 -18 8
    endloop
  endfacet
  facet normal 0 -1 -0
    outer loop
      vertex 596.9 -18 8
      vertex 592.9 -18 -4
      vertex 596.9 -18 -4
    endloop
  endfacet
  facet normal 1 -0 0
    outer loop
      vertex 368.3 37 8
      vertex 368.3 73 -4
      vertex 368.3 73 8
    endloop
  endfacet
  facet normal 1 0 0
    outer loop
      vertex 368.3 73 -4
      vertex 368.3 37 8
      vertex 368.3 37 -4
    endloop
  endfacet
  facet normal -0 0 1
    outer loop
      vertex 4 59 4
      vertex 364.3 55 4
      vertex 364.3 59 4
    endloop
  endfacet
  facet normal 0 0 1
    outer loop
      vertex 364.3 55 4
      vertex 4 59 4
      vertex 4 55 4
    endloop
  endfacet
  facet normal 0 0 -1
    outer loop
      vertex 4 55 0
      vertex 364.3 59 0
      vertex 364.3 55 0
    endloop
  endfacet
  facet normal -0 0 -1
    outer loop
      vertex 364.3 59 0
      vertex 4 55 0
      vertex 4 59 0
    endloop
  endfacet
  facet normal -1 0 0
    outer loop
      vertex 0 37 -4
      vertex 0 73 8
      vertex 0 73 -4
    endloop
  endfacet
  facet normal -1 -0 0
    outer loop
      vertex 0 73 8
      vertex 0 37 -4
      vertex 0 37 8
    endloop
  endfacet
  facet normal 0 1 -0
    outer loop
      vertex 364.3 59 0
      vertex 4 59 4
      vertex 364.3 59 4
    endloop
  endfacet
  facet normal 0 1 0
    outer loop
      vertex 4 59 4
      vertex 364.3 59 0
      vertex 4 59 0
    endloop
  endfacet
  facet normal 0 -1 0
    outer loop
      vertex 4 55 0
      vertex 364.3 55 4
      vertex 4 55 4
    endloop
  endfacet
  facet normal 0 -1 -0
    outer loop
      vertex 364.3 55 4
      vertex 4 55 0
      vertex 364.3 55 0
    endloop
  endfacet
  facet normal 1 0 0
    outer loop
      vertex 4 73 8
      vertex 4 59 4
      vertex 4 73 -4
    endloop
  endfacet
  facet normal 1 0 0
    outer loop
      vertex 4 73 8
      vertex 4 55 4
      vertex 4 59 4
    endloop
  endfacet
  facet normal 1 0 0
    outer loop
      vertex 4 55 4
      vertex 4 37 8
      vertex 4 55 0
    endloop
  endfacet
  facet normal 1 -0 0
    outer loop
      vertex 4 37 8
      vertex 4 55 4
      vertex 4 73 8
    endloop
  endfacet
  facet normal 1 -0 0
    outer loop
      vertex 4 59 0
      vertex 4 73 -4
      vertex 4 59 4
    endloop
  endfacet
  facet normal 1 -0 0
    outer loop
      vertex 4 55 0
      vertex 4 73 -4
      vertex 4 59 0
    endloop
  endfacet
  facet normal 1 0 0
    outer loop
      vertex 4 55 0
      vertex 4 37 -4
      vertex 4 73 -4
    endloop
  endfacet
  facet normal 1 0 0
    outer loop
      vertex 4 37 -4
      vertex 4 55 0
      vertex 4 37 8
    endloop
  endfacet
  facet normal -0 0 1
    outer loop
      vertex 0 73 8
      vertex 4 37 8
      vertex 4 73 8
    endloop
  endfacet
  facet normal 0 0 1
    outer loop
      vertex 4 37 8
      vertex 0 73 8
      vertex 0 37 8
    endloop
  endfacet
  facet normal 0 0 -1
    outer loop
      vertex 0 37 -4
      vertex 4 73 -4
      vertex 4 37 -4
    endloop
  endfacet
  facet normal -0 0 -1
    outer loop
      vertex 4 73 -4
      vertex 0 37 -4
      vertex 0 73 -4
    endloop
  endfacet
  facet normal 0 1 -0
    outer loop
      vertex 4 73 -4
      vertex 0 73 8
      vertex 4 73 8
    endloop
  endfacet
  facet normal 0 1 0
    outer loop
      vertex 0 73 8
      vertex 4 73 -4
      vertex 0 73 -4
    endloop
  endfacet
  facet normal 0 -1 0
    outer loop
      vertex 0 37 -4
      vertex 4 37 8
      vertex 0 37 8
    endloop
  endfacet
  facet normal 0 -1 -0
    outer loop
      vertex 4 37 8
      vertex 0 37 -4
      vertex 4 37 -4
    endloop
  endfacet
  facet normal -0 0 1
    outer loop
      vertex 364.3 73 8
      vertex 368.3 37 8
      vertex 368.3 73 8
    endloop
  endfacet
  facet normal 0 0 1
    outer loop
      vertex 368.3 37 8
      vertex 364.3 73 8
      vertex 364.3 37 8
    endloop
  endfacet
  facet normal 0 0 -1
    outer loop
      vertex 364.3 37 -4
      vertex 368.3 73 -4
      vertex 368.3 37 -4
    endloop
  endfacet
  facet normal -0 0 -1
    outer loop
      vertex 368.3 73 -4
      vertex 364.3 37 -4
      vertex 364.3 73 -4
    endloop
  endfacet
  facet normal -1 0 0
    outer loop
      vertex 364.3 73 -4
      vertex 364.3 59 0
      vertex 364.3 73 8
    endloop
  endfacet
  facet normal -1 0 0
    outer loop
      vertex 364.3 73 -4
      vertex 364.3 55 0
      vertex 364.3 59 0
    endloop
  endfacet
  facet normal -1 -0 0
    outer loop
      vertex 364.3 55 0
      vertex 364.3 37 -4
      vertex 364.3 55 4
    endloop
  endfacet
  facet normal -1 0 0
    outer loop
      vertex 364.3 37 -4
      vertex 364.3 55 0
      vertex 364.3 73 -4
    endloop
  endfacet
  facet normal -1 0 0
    outer loop
      vertex 364.3 59 4
      vertex 364.3 73 8
      vertex 364.3 59 0
    endloop
  endfacet
  facet normal -1 0 0
    outer loop
      vertex 364.3 55 4
      vertex 364.3 73 8
      vertex 364.3 59 4
    endloop
  endfacet
  facet normal -1 0 0
    outer loop
      vertex 364.3 55 4
      vertex 364.3 37 8
      vertex 364.3 73 8
    endloop
  endfacet
  facet normal -1 0 0
    outer loop
      vertex 364.3 37 8
      vertex 364.3 55 4
      vertex 364.3 37 -4
    endloop
  endfacet
  facet normal 0 1 -0
    outer loop
      vertex 368.3 73 -4
      vertex 364.3 73 8
      vertex 368.3 73 8
    endloop
  endfacet
  facet normal 0 1 0
    outer loop
      vertex 364.3 73 8
      vertex 368.3 73 -4
      vertex 364.3 73 -4
    endloop
  endfacet
  facet normal 0 -1 0
    outer loop
      vertex 364.3 37 -4
      vertex 368.3 37 8
      vertex 364.3 37 8
    endloop
  endfacet
  facet normal 0 -1 -0
    outer loop
      vertex 368.3 37 8
      vertex 364.3 37 -4
      vertex 368.3 37 -4
    endloop
  endfacet
  facet normal 1 -0 0
    outer loop
      vertex 965.2 92 8
      vertex 965.2 128 -4
      vertex 965.2 128 8
    endloop
  endfacet
  facet normal 1 0 0
    outer loop
      vertex 965.2 128 -4
      vertex 965.2 92 8
      vertex 965.2 92 -4
    endloop
  endfacet
  facet normal -0 0 1
    outer loop
      vertex 4 114 4
      vertex 961.2 110 4
      vertex 961.2 114 4
    endloop
  endfacet
  facet normal 0 0 1
    outer loop
      vertex 961.2 110 4
      vertex 4 114 4
      vertex 4 110 4
    endloop
  endfacet
  facet normal 0 0 -1
    outer loop
      vertex 4 110 0
      vertex 961.2 114 0
      vertex 961.2 110 0
    endloop
  endfacet
  facet normal -0 0 -1
    outer loop
      vertex 961.2 114 0
      vertex 4 110 0
      vertex 4 114 0
    endloop
  endfacet
  facet normal -1 0 0
    outer loop
      vertex 0 92 -4
      vertex 0 128 8
      vertex 0 128 -4
    endloop
  endfacet
  facet normal -1 -0 0
    outer loop
      vertex 0 128 8
      vertex 0 92 -4
      vertex 0 92 8
    endloop
  endfacet
  facet normal 0 1 -0
    outer loop
      vertex 961.2 114 0
      vertex 4 114 4
      vertex 961.2 114 4
    endloop
  endfacet
  facet normal 0 1 0
    outer loop
      vertex 4 114 4
      vertex 961.2 114 0
      vertex 4 114 0
    endloop
  endfacet
  facet normal 0 -1 0
    outer loop
      vertex 4 110 0
      vertex 961.2 110 4
      vertex 4 110 4
    endloop
  endfacet
  facet normal 0 -1 -0
    outer loop
      vertex 961.2 110 4
      vertex 4 110 0
      vertex 961.2 110 0
    endloop
  endfacet
  facet normal 1 0 0
    outer loop
      vertex 4 128 8
      vertex 4 114 4
      vertex 4 128 -4
    endloop
  endfacet
  facet normal 1 0 0
    outer loop
      vertex 4 128 8
      vertex 4 110 4
      vertex 4 114 4
    endloop
  endfacet
  facet normal 1 0 0
    outer loop
      vertex 4 110 4
      vertex 4 92 8
      vertex 4 110 0
    endloop
  endfacet
  facet normal 1 -0 0
    outer loop
      vertex 4 92 8
      vertex 4 110 4
      vertex 4 128 8
    endloop
  endfacet
  facet normal 1 -0 0
    outer loop
      vertex 4 114 0
      vertex 4 128 -4
      vertex 4 114 4
    endloop
  endfacet
  facet normal 1 -0 0
    outer loop
      vertex 4 110 0
      vertex 4 128 -4
      vertex 4 114 0
    endloop
  endfacet
  facet normal 1 0 0
    outer loop
      vertex 4 110 0
      vertex 4 92 -4
      vertex 4 128 -4
    endloop
  endfacet
  facet normal 1 0 0
    outer loop
      vertex 4 92 -4
      vertex 4 110 0
      vertex 4 92 8
    endloop
  endfacet
  facet normal -0 0 1
    outer loop
      vertex 0 128 8
      vertex 4 92 8
      vertex 4 128 8
    endloop
  endfacet
  facet normal 0 0 1
    outer loop
      vertex 4 92 8
      vertex 0 128 8
      vertex 0 92 8
    endloop
  endfacet
  facet normal 0 0 -1
    outer loop
      vertex 0 92 -4
      vertex 4 128 -4
      vertex 4 92 -4
    endloop
  endfacet
  facet normal -0 0 -1
    outer loop
      vertex 4 128 -4
      vertex 0 92 -4
      vertex 0 128 -4
    endloop
  endfacet
  facet normal 0 1 -0
    outer loop
      vertex 4 128 -4
      vertex 0 128 8
      vertex 4 128 8
    endloop
  endfacet
  facet normal 0 1 0
    outer loop
      vertex 0 128 8
      vertex 4 128 -4
      vertex 0 128 -4
    endloop
  endfacet
  facet normal 0 -1 0
    outer loop
      vertex 0 92 -4
      vertex 4 92 8
      vertex 0 92 8
    endloop
  endfacet
  facet normal 0 -1 -0
    outer loop
      vertex 4 92 8
      vertex 0 92 -4
      vertex 4 92 -4
    endloop
  endfacet
  facet normal -0 0 1
    outer loop
      vertex 961.2 128 8
      vertex 965.2 92 8
      vertex 965.2 128 8
    endloop
  endfacet
  facet normal 0 0 1
    outer loop
      vertex 965.2 92 8
      vertex 961.2 128 8
      vertex 961.2 92 8
    endloop
  endfacet
  facet normal 0 0 -1
    outer loop
      vertex 961.2 92 -4
      vertex 965.2 128 -4
      vertex 965.2 92 -4
    endloop
  endfacet
  facet normal -0 0 -1
    outer loop
      vertex 965.2 128 -4
      vertex 961.2 92 -4
      vertex 961.2 128 -4
    endloop
  endfacet
  facet normal -1 0 0
    outer loop
      vertex 961.2 128 -4
      vertex 961.2 114 0
      vertex 961.2 128 8
    endloop
  endfacet
  facet normal -1 0 0
    outer loop
      vertex 961.2 128 -4
      vertex 961.2 110 0
      vertex 961.2 114 0
    endloop
  endfacet
  facet normal -1 -0 0
    outer loop
      vertex 961.2 110 0
      vertex 961.2 92 -4
      vertex 961.2 110 4
    endloop
  endfacet
  facet normal -1 0 0
    outer loop
      vertex 961.2 92 -4
      vertex 961.2 110 0
      vertex 961.2 128 -4
    endloop
  endfacet
  facet normal -1 0 0
    outer loop
      vertex 961.2 114 4
      vertex 961.2 128 8
      vertex 961.2 114 0
    endloop
  endfacet
  facet normal -1 0 0
    outer loop
      vertex 961.2 110 4
      vertex 961.2 128 8
      vertex 961.2 114 4
    endloop
  endfacet
  facet normal -1 0 0
    outer loop
      vertex 961.2 110 4
      vertex 961.2 92 8
      vertex 961.2 128 8
    endloop
  endfacet
  facet normal -1 0 0
    outer loop
      vertex 961.2 92 8
      vertex 961.2 110 4
      vertex 961.2 92 -4
    endloop
  endfacet
  facet normal 0 1 -0
    outer loop
      vertex 965.2 128 -4
      vertex 961.2 128 8
      vertex 965.2 128 8
    endloop
  endfacet
  facet normal 0 1 0
    outer loop
      vertex 961.2 128 8
      vertex 965.2 128 -4
      vertex 961.2 128 -4
    endloop
  endfacet
  facet normal 0 -1 0
    outer loop
      vertex 961.2 92 -4
      vertex 965.2 92 8
      vertex 961.2 92 8
    endloop
  endfacet
  facet normal 0 -1 -0
    outer loop
      vertex 965.2 92 8
      vertex 961.2 92 -4
      vertex 965.2 92 -4
    endloop
  endfacet
  facet normal 1 -0 0
    outer loop
      vertex 1041.4 147 8
      vertex 1041.4 183 -4
      vertex 1041.4 183 8
    endloop
  endfacet
  facet normal 1 0 0
    outer loop
      vertex 1041.4 183 -4
      vertex 1041.4 147 8
      vertex 1041.4 147 -4
    endloop
  endfacet
  facet normal -0 0 1
    outer loop
      vertex 4 169 4
      vertex 1037.4 165 4
      vertex 1037.4 169 4
    endloop
  endfacet
  facet normal 0 0 1
    outer loop
      vertex 1037.4 165 4
      vertex 4 169 4
      vertex 4 165 4
    endloop
  endfacet
  facet normal 0 0 -1
    outer loop
      vertex 4 165 0
      vertex 1037.4 169 0
      vertex 1037.4 165 0
    endloop
  endfacet
  facet normal -0 0 -1
    outer loop
      vertex 1037.4 169 0
      vertex 4 165 0
      vertex 4 169 0
    endloop
  endfacet
  facet normal -1 0 0
    outer loop
      vertex 0 147 -4
      vertex 0 183 8
      vertex 0 183 -4
    endloop
  endfacet
  facet normal -1 -0 0
    outer loop
      vertex 0 183 8
      vertex 0 147 -4
      vertex 0 147 8
    endloop
  endfacet
  facet normal 0 1 -0
    outer loop
      vertex 1037.4 169 0
      vertex 4 169 4
      vertex 1037.4 169 4
    endloop
  endfacet
  facet normal 0 1 0
    outer loop
      vertex 4 169 4
      vertex 1037.4 169 0
      vertex 4 169 0
    endloop
  endfacet
  facet normal 0 -1 0
    outer loop
      vertex 4 165 0
      vertex 1037.4 165 4
      vertex 4 165 4
    endloop
  endfacet
  facet normal 0 -1 -0
    outer loop
      vertex 1037.4 165 4
      vertex 4 165 0
      vertex 1037.4 165 0
    endloop
  endfacet
  facet normal 1 0 0
    outer loop
      vertex 4 183 8
      vertex 4 169 4
      vertex 4 183 -4
    endloop
  endfacet
  facet normal 1 0 0
    outer loop
      vertex 4 183 8
      vertex 4 165 4
      vertex 4 169 4
    endloop
  endfacet
  facet normal 1 0 0
    outer loop
      vertex 4 165 4
      vertex 4 147 8
      vertex 4 165 0
    endloop
  endfacet
  facet normal 1 -0 0
    outer loop
      vertex 4 147 8
      vertex 4 165 4
      vertex 4 183 8
    endloop
  endfacet
  facet normal 1 -0 0
    outer loop
      vertex 4 169 0
      vertex 4 183 -4
      vertex 4 169 4
    endloop
  endfacet
  facet normal 1 -0 0
    outer loop
      vertex 4 165 0
      vertex 4 183 -4
      vertex 4 169 0
    endloop
  endfacet
  facet normal 1 0 0
    outer loop
      vertex 4 165 0
      vertex 4 147 -4
      vertex 4 183 -4
    endloop
  endfacet
  facet normal 1 0 0
    outer loop
      vertex 4 147 -4
      vertex 4 165 0
      vertex 4 147 8
    endloop
  endfacet
  facet normal -0 0 1
    outer loop
      vertex 0 183 8
      vertex 4 147 8
      vertex 4 183 8
    endloop
  endfacet
  facet normal 0 0 1
    outer loop
      vertex 4 147 8
      vertex 0 183 8
      vertex 0 147 8
    endloop
  endfacet
  facet normal 0 0 -1
    outer loop
      vertex 0 147 -4
      vertex 4 183 -4
      vertex 4 147 -4
    endloop
  endfacet
  facet normal -0 0 -1
    outer loop
      vertex 4 183 -4
      vertex 0 147 -4
      vertex 0 183 -4
    endloop
  endfacet
  facet normal 0 1 -0
    outer loop
      vertex 4 183 -4
      vertex 0 183 8
      vertex 4 183 8
    endloop
  endfacet
  facet normal 0 1 0
    outer loop
      vertex 0 183 8
      vertex 4 183 -4
      vertex 0 183 -4
    endloop
  endfacet
  facet normal 0 -1 0
    outer loop
      vertex 0 147 -4
      vertex 4 147 8
      vertex 0 147 8
    endloop
  endfacet
  facet normal 0 -1 -0
    outer loop
      vertex 4 147 8
      vertex 0 147 -4
      vertex 4 147 -4
    endloop
  endfacet
  facet normal -0 0 1
    outer loop
      vertex 1037.4 183 8
      vertex 1041.4 147 8
      vertex 1041.4 183 8
    endloop
  endfacet
  facet normal 0 0 1
    outer loop
      vertex 1041.4 147 8
      vertex 1037.4 183 8
      vertex 1037.4 147 8
    endloop
  endfacet
  facet normal 0 0 -1
    outer loop
      vertex 1037.4 147 -4
      vertex 1041.4 183 -4
      vertex 1041.4 147 -4
    endloop
  endfacet
  facet normal -0 0 -1
    outer loop
      vertex 1041.4 183 -4
      vertex 1037.4 147 -4
      vertex 1037.4 183 -4
    endloop
  endfacet
  facet normal -1 0 0
    outer loop
      vertex 1037.4 183 -4
      vertex 1037.4 169 0
      vertex 1037.4 183 8
    endloop
  endfacet
  facet normal -1 0 0
    outer loop
      vertex 1037.4 183 -4
      vertex 1037.4 165 0
      vertex 1037.4 169 0
    endloop
  endfacet
  facet normal -1 -0 0
    outer loop
      vertex 1037.4 165 0
      vertex 1037.4 147 -4
      vertex 1037.4 165 4
    endloop
  endfacet
  facet normal -1 0 0
    outer loop
      vertex 1037.4 147 -4
      vertex 1037.4 165 0
      vertex 1037.4 183 -4
    endloop
  endfacet
  facet normal -1 0 0
    outer loop
      vertex 1037.4 169 4
      vertex 1037.4 183 8
      vertex 1037.4 169 0
    endloop
  endfacet
  facet normal -1 0 0
    outer loop
      vertex 1037.4 165 4
      vertex 1037.4 183 8
      vertex 1037.4 169 4
    endloop
  endfacet
  facet normal -1 0 0
    outer loop
      vertex 1037.4 165 4
      vertex 1037.4 147 8
      vertex 1037.4 183 8
    endloop
  endfacet
  facet normal -1 0 0
    outer loop
      vertex 1037.4 147 8
      vertex 1037.4 165 4
      vertex 1037.4 147 -4
    endloop
  endfacet
  facet normal 0 1 -0
    outer loop
      vertex 1041.4 183 -4
      vertex 1037.4 183 8
      vertex 1041.4 183 8
    endloop
  endfacet
  facet normal 0 1 0
    outer loop
      vertex 1037.4 183 8
      vertex 1041.4 183 -4
      vertex 1037.4 183 -4
    endloop
  endfacet
  facet normal 0 -1 0
    outer loop
      vertex 1037.4 147 -4
      vertex 1041.4 147 8
      vertex 1037.4 147 8
    endloop
  endfacet
  facet normal 0 -1 -0
    outer loop
      vertex 1041.4 147 8
      vertex 1037.4 147 -4
      vertex 1041.4 147 -4
    endloop
  endfacet
  facet normal 1 -0 0
    outer loop
      vertex -66 0 351.6
      vertex -66 4 0
      vertex -66 4 351.6
    endloop
  endfacet
  facet normal 1 0 0
    outer loop
      vertex -66 4 0
      vertex -66 0 351.6
      vertex -66 0 0
    endloop
  endfacet
  facet normal -0 0 1
    outer loop
      vertex -88 8 355.6
      vertex -52 -4 355.6
      vertex -52 8 355.6
    endloop
  endfacet
  facet normal 0 0 1
    outer loop
      vertex -52 -4 355.6
      vertex -88 8 355.6
      vertex -88 -4 355.6
    endloop
  endfacet
  facet normal 0 0 -1
    outer loop
      vertex -70 0 0
      vertex -66 4 0
      vertex -66 0 0
    endloop
  endfacet
  facet normal -0 0 -1
    outer loop
      vertex -66 4 0
      vertex -70 0 0
      vertex -70 4 0
    endloop
  endfacet
  facet normal -1 0 0
    outer loop
      vertex -70 0 0
      vertex -70 4 351.6
      vertex -70 4 0
    endloop
  endfacet
  facet normal -1 -0 0
    outer loop
      vertex -70 4 351.6
      vertex -70 0 0
      vertex -70 0 351.6
    endloop
  endfacet
  facet normal 0 1 -0
    outer loop
      vertex -66 4 0
      vertex -70 4 351.6
      vertex -66 4 351.6
    endloop
  endfacet
  facet normal 0 1 0
    outer loop
      vertex -70 4 351.6
      vertex -66 4 0
      vertex -70 4 0
    endloop
  endfacet
  facet normal 0 -1 0
    outer loop
      vertex -70 0 0
      vertex -66 0 351.6
      vertex -70 0 351.6
    endloop
  endfacet
  facet normal 0 -1 -0
    outer loop
      vertex -66 0 351.6
      vertex -70 0 0
      vertex -66 0 0
    endloop
  endfacet
  facet normal 1 -0 0
    outer loop
      vertex -52 -4 355.6
      vertex -52 8 351.6
      vertex -52 8 355.6
    endloop
  endfacet
  facet normal 1 0 0
    outer loop
      vertex -52 8 351.6
      vertex -52 -4 355.6
      vertex -52 -4 351.6
    endloop
  endfacet
  facet normal 0 0 -1
    outer loop
      vertex -52 -4 351.6
      vertex -66 0 351.6
      vertex -52 8 351.6
    endloop
  endfacet
  facet normal 0 0 -1
    outer loop
      vertex -52 -4 351.6
      vertex -70 0 351.6
      vertex -66 0 351.6
    endloop
  endfacet
  facet normal -0 0 -1
    outer loop
      vertex -70 0 351.6
      vertex -88 -4 351.6
      vertex -70 4 351.6
    endloop
  endfacet
  facet normal 0 0 -1
    outer loop
      vertex -88 -4 351.6
      vertex -70 0 351.6
      vertex -52 -4 351.6
    endloop
  endfacet
  facet normal 0 0 -1
    outer loop
      vertex -66 4 351.6
      vertex -52 8 351.6
      vertex -66 0 351.6
    endloop
  endfacet
  facet normal 0 0 -1
    outer loop
      vertex -70 4 351.6
      vertex -52 8 351.6
      vertex -66 4 351.6
    endloop
  endfacet
  facet normal 0 0 -1
    outer loop
      vertex -70 4 351.6
      vertex -88 8 351.6
      vertex -52 8 351.6
    endloop
  endfacet
  facet normal 0 0 -1
    outer loop
      vertex -88 8 351.6
      vertex -70 4 351.6
      vertex -88 -4 351.6
    endloop
  endfacet
  facet normal -1 0 0
    outer loop
      vertex -88 -4 351.6
      vertex -88 8 355.6
      vertex -88 8 351.6
    endloop
  endfacet
  facet normal -1 -0 0
    outer loop
      vertex -88 8 355.6
      vertex -88 -4 351.6
      vertex -88 -4 355.6
    endloop
  endfacet
  facet normal 0 1 -0
    outer loop
      vertex -52 8 351.6
      vertex -88 8 355.6
      vertex -52 8 355.6
    endloop
  endfacet
  facet normal 0 1 0
    outer loop
      vertex -88 8 355.6
      vertex -52 8 351.6
      vertex -88 8 351.6
    endloop
  endfacet
  facet normal 0 -1 0
    outer loop
      vertex -88 -4 351.6
      vertex -52 -4 355.6
      vertex -88 -4 355.6
    endloop
  endfacet
  facet normal 0 -1 -0
    outer loop
      vertex -52 -4 355.6
      vertex -88 -4 351.6
      vertex -52 -4 351.6
    endloop
  endfacet
  facet normal 1 -0 0
    outer loop
      vertex 495.3 310 4
      vertex 495.3 652.9 0
      vertex 495.3 652.9 4
    endloop
  endfacet
  facet normal 1 0 0
    outer loop
      vertex 495.3 652.9 0
      vertex 495.3 310 4
      vertex 495.3 310 0
    endloop
  endfacet
  facet normal 0 0 1
    outer loop
      vertex 495.3 652.9 4
      vertex 491.3 648.9 4
      vertex 495.3 310 4
    endloop
  endfacet
  facet normal 0 0 1
    outer loop
      vertex 495.3 652.9 4
      vertex 4 648.9 4
      vertex 491.3 648.9 4
    endloop
  endfacet
  facet normal 0 0 1
    outer loop
      vertex 4 648.9 4
      vertex 0 652.9 4
      vertex 4 314 4
    endloop
  endfacet
  facet normal -0 0 1
    outer loop
      vertex 0 652.9 4
      vertex 4 648.9 4
      vertex 495.3 652.9 4
    endloop
  endfacet
  facet normal -0 0 1
    outer loop
      vertex 491.3 314 4
      vertex 495.3 310 4
      vertex 491.3 648.9 4
    endloop
  endfacet
  facet normal -0 0 1
    outer loop
      vertex 4 314 4
      vertex 495.3 310 4
      vertex 491.3 314 4
    endloop
  endfacet
  facet normal 0 0 1
    outer loop
      vertex 4 314 4
      vertex 0 310 4
      vertex 495.3 310 4
    endloop
  endfacet
  facet normal 0 0 1
    outer loop
      vertex 0 310 4
      vertex 4 314 4
      vertex 0 652.9 4
    endloop
  endfacet
  facet normal 0 0 -1
    outer loop
      vertex 495.3 310 0
      vertex 491.3 314 0
      vertex 495.3 652.9 0
    endloop
  endfacet
  facet normal 0 0 -1
    outer loop
      vertex 495.3 310 0
      vertex 4 314 0
      vertex 491.3 314 0
    endloop
  endfacet
  facet normal -0 0 -1
    outer loop
      vertex 4 314 0
      vertex 0 310 0
      vertex 4 648.9 0
    endloop
  endfacet
  facet normal 0 0 -1
    outer loop
      vertex 0 310 0
      vertex 4 314 0
      vertex 495.3 310 0
    endloop
  endfacet
  facet normal 0 0 -1
    outer loop
      vertex 491.3 648.9 0
      vertex 495.3 652.9 0
      vertex 491.3 314 0
    endloop
  endfacet
  facet normal 0 0 -1
    outer loop
      vertex 4 648.9 0
      vertex 495.3 652.9 0
      vertex 491.3 648.9 0
    endloop
  endfacet
  facet normal 0 0 -1
    outer loop
      vertex 4 648.9 0
      vertex 0 652.9 0
      vertex 495.3 652.9 0
    endloop
  endfacet
  facet normal 0 0 -1
    outer loop
      vertex 0 652.9 0
      vertex 4 648.9 0
      vertex 0 310 0
    endloop
  endfacet
  facet normal -1 0 0
    outer loop
      vertex 0 310 0
      vertex 0 652.9 4
      vertex 0 652.9 0
    endloop
  endfacet
  facet normal -1 -0 0
    outer loop
      vertex 0 652.9 4
      vertex 0 310 0
      vertex 0 310 4
    endloop
  endfacet
  facet normal 0 1 -0
    outer loop
      vertex 491.3 314 0
      vertex 4 314 4
      vertex 491.3 314 4
    endloop
  endfacet
  facet normal 0 1 0
    outer loop
      vertex 4 314 4
      vertex 491.3 314 0
      vertex 4 314 0
    endloop
  endfacet
  facet normal 0 -1 0
    outer loop
      vertex 0 310 0
      vertex 495.3 310 4
      vertex 0 310 4
    endloop
  endfacet
  facet normal 0 -1 -0
    outer loop
      vertex 495.3 310 4
      vertex 0 310 0
      vertex 495.3 310 0
    endloop
  endfacet
  facet normal 0 1 -0
    outer loop
      vertex 495.3 652.9 0
      vertex 0 652.9 4
      vertex 495.3 652.9 4
    endloop
  endfacet
  facet normal 0 1 0
    outer loop
      vertex 0 652.9 4
      vertex 495.3 652.9 0
      vertex 0 652.9 0
    endloop
  endfacet
  facet normal 0 -1 0
    outer loop
      vertex 4 648.9 0
      vertex 491.3 648.9 4
      vertex 4 648.9 4
    endloop
  endfacet
  facet normal 0 -1 -0
    outer loop
      vertex 491.3 648.9 4
      vertex 4 648.9 0
      vertex 491.3 648.9 0
    endloop
  endfacet
  facet normal 1 -0 0
    outer loop
      vertex 4 314 4
      vertex 4 648.9 0
      vertex 4 648.9 4
    endloop
  endfacet
  facet normal 1 0 0
    outer loop
      vertex 4 648.9 0
      vertex 4 314 4
      vertex 4 314 0
    endloop
  endfacet
  facet normal -1 0 0
    outer loop
      vertex 491.3 314 0
      vertex 491.3 648.9 4
      vertex 491.3 648.9 0
    endloop
  endfacet
  facet normal -1 -0 0
    outer loop
      vertex 491.3 648.9 4
      vertex 491.3 314 0
      vertex 491.3 314 4
    endloop
  endfacet
  facet normal 1 -0 0
    outer loop
      vertex 69.7 212 363.6
      vertex 69.7 248 351.6
      vertex 69.7 248 363.6
    endloop
  endfacet
  facet normal 1 0 0
    outer loop
      vertex 69.7 248 351.6
      vertex 69.7 212 363.6
      vertex 69.7 212 351.6
    endloop
  endfacet
  facet normal -0 0 1
    outer loop
      vertex -205.7 234 359.6
      vertex 65.7 230 359.6
      vertex 65.7 234 359.6
    endloop
  endfacet
  facet normal 0 0 1
    outer loop
      vertex 65.7 230 359.6
      vertex -205.7 234 359.6
      vertex -205.7 230 359.6
    endloop
  endfacet
  facet normal 0 0 -1
    outer loop
      vertex -205.7 230 355.6
      vertex 65.7 234 355.6
      vertex 65.7 230 355.6
    endloop
  endfacet
  facet normal -0 0 -1
    outer loop
      vertex 65.7 234 355.6
      vertex -205.7 230 355.6
      vertex -205.7 234 355.6
    endloop
  endfacet
  facet normal -1 0 0
    outer loop
      vertex -209.7 212 351.6
      vertex -209.7 248 363.6
      vertex -209.7 248 351.6
    endloop
  endfacet
  facet normal -1 -0 0
    outer loop
      vertex -209.7 248 363.6
      vertex -209.7 212 351.6
      vertex -209.7 212 363.6
    endloop
  endfacet
  facet normal 0 1 -0
    outer loop
      vertex 65.7 234 355.6
      vertex -205.7 234 359.6
      vertex 65.7 234 359.6
    endloop
  endfacet
  facet normal 0 1 0
    outer loop
      vertex -205.7 234 359.6
      vertex 65.7 234 355.6
      vertex -205.7 234 355.6
    endloop
  endfacet
  facet normal 0 -1 0
    outer loop
      vertex -205.7 230 355.6
      vertex 65.7 230 359.6
      vertex -205.7 230 359.6
    endloop
  endfacet
  facet normal 0 -1 -0
    outer loop
      vertex 65.7 230 359.6
      vertex -205.7 230 355.6
      vertex 65.7 230 355.6
    endloop
  endfacet
  facet normal 1 0 0
    outer loop
      vertex -205.7 248 363.6
      vertex -205.7 234 359.6
      vertex -205.7 248 351.6
    endloop
  endfacet
  facet normal 1 0 0
    outer loop
      vertex -205.7 248 363.6
      vertex -205.7 230 359.6
      vertex -205.7 234 359.6
    endloop
  endfacet
  facet normal 1 0 0
    outer loop
      vertex -205.7 230 359.6
      vertex -205.7 212 363.6
      vertex -205.7 230 355.6
    endloop
  endfacet
  facet normal 1 -0 0
    outer loop
      vertex -205.7 212 363.6
      vertex -205.7 230 359.6
      vertex -205.7 248 363.6
    endloop
  endfacet
  facet normal 1 -0 0
    outer loop
      vertex -205.7 234 355.6
      vertex -205.7 248 351.6
      vertex -205.7 234 359.6
    endloop
  endfacet
  facet normal 1 -0 0
    outer loop
      vertex -205.7 230 355.6
      vertex -205.7 248 351.6
      vertex -205.7 234 355.6
    endloop
  endfacet
  facet normal 1 0 0
    outer loop
      vertex -205.7 230 355.6
      vertex -205.7 212 351.6
      vertex -205.7 248 351.6
    endloop
  endfacet
  facet normal 1 0 0
    outer loop
      vertex -205.7 212 351.6
      vertex -205.7 230 355.6
      vertex -205.7 212 363.6
    endloop
  endfacet
  facet normal -0 0 1
    outer loop
      vertex -209.7 248 363.6
      vertex -205.7 212 363.6
      vertex -205.7 248 363.6
    endloop
  endfacet
  facet normal 0 0 1
    outer loop
      vertex -205.7 212 363.6
      vertex -209.7 248 363.6
      vertex -209.7 212 363.6
    endloop
  endfacet
  facet normal 0 0 -1
    outer loop
      vertex -209.7 212 351.6
      vertex -205.7 248 351.6
      vertex -205.7 212 351.6
    endloop
  endfacet
  facet normal -0 0 -1
    outer loop
      vertex -205.7 248 351.6
      vertex -209.7 212 351.6
      vertex -209.7 248 351.6
    endloop
  endfacet
  facet normal 0 1 -0
    outer loop
      vertex -205.7 248 351.6
      vertex -209.7 248 363.6
      vertex -205.7 248 363.6
    endloop
  endfacet
  facet normal 0 1 0
    outer loop
      vertex -209.7 248 363.6
      vertex -205.7 248 351.6
      vertex -209.7 248 351.6
    endloop
  endfacet
  facet normal 0 -1 0
    outer loop
      vertex -209.7 212 351.6
      vertex -205.7 212 363.6
      vertex -209.7 212 363.6
    endloop
  endfacet
  facet normal 0 -1 -0
    outer loop
      vertex -205.7 212 363.6
      vertex -209.7 212 351.6
      vertex -205.7 212 351.6
    endloop
  endfacet
  facet normal -0 0 1
    outer loop
      vertex 65.7 248 363.6
      vertex 69.7 212 363.6
      vertex 69.7 248 363.6
    endloop
  endfacet
  facet normal 0 0 1
    outer loop
      vertex 69.7 212 363.6
      vertex 65.7 248 363.6
      vertex 65.7 212 363.6
    endloop
  endfacet
  facet normal 0 0 -1
    outer loop
      vertex 65.7 212 351.6
      vertex 69.7 248 351.6
      vertex 69.7 212 351.6
    endloop
  endfacet
  facet normal -0 0 -1
    outer loop
      vertex 69.7 248 351.6
      vertex 65.7 212 351.6
      vertex 65.7 248 351.6
    endloop
  endfacet
  facet normal -1 0 0
    outer loop
      vertex 65.7 248 351.6
      vertex 65.7 234 355.6
      vertex 65.7 248 363.6
    endloop
  endfacet
  facet normal -1 0 0
    outer loop
      vertex 65.7 248 351.6
      vertex 65.7 230 355.6
      vertex 65.7 234 355.6
    endloop
  endfacet
  facet normal -1 -0 0
    outer loop
      vertex 65.7 230 355.6
      vertex 65.7 212 351.6
      vertex 65.7 230 359.6
    endloop
  endfacet
  facet normal -1 0 0
    outer loop
      vertex 65.7 212 351.6
      vertex 65.7 230 355.6
      vertex 65.7 248 351.6
    endloop
  endfacet
  facet normal -1 0 0
    outer loop
      vertex 65.7 234 359.6
      vertex 65.7 248 363.6
      vertex 65.7 234 355.6
    endloop
  endfacet
  facet normal -1 0 0
    outer loop
      vertex 65.7 230 359.6
      vertex 65.7 248 363.6
      vertex 65.7 234 359.6
    endloop
  endfacet
  facet normal -1 0 0
    outer loop
      vertex 65.7 230 359.6
      vertex 65.7 212 363.6
      vertex 65.7 248 363.6
    endloop
  endfacet
  facet normal -1 0 0
    outer loop
      vertex 65.7 212 363.6
      vertex 65.7 230 359.6
      vertex 65.7 212 351.6
    endloop
  endfacet
  facet normal 0 1 -0
    outer loop
      vertex 69.7 248 351.6
      vertex 65.7 248 363.6
      vertex 69.7 248 363.6
    endloop
  endfacet
  facet normal 0 1 0
    outer loop
      vertex 65.7 248 363.6
      vertex 69.7 248 351.6
      vertex 65.7 248 351.6
    endloop
  endfacet
  facet normal 0 -1 0
    outer loop
      vertex 65.7 212 351.6
      vertex 69.7 212 363.6
      vertex 65.7 212 363.6
    endloop
  endfacet
  facet normal 0 -1 -0
    outer loop
      vertex 69.7 212 363.6
      vertex 65.7 212 351.6
      vertex 69.7 212 351.6
    endloop
  endfacet
endsolid OpenSCAD_Model
